<svg width="32" height="32" viewBox="0 0 32 32" fill="none" xmlns="http://www.w3.org/2000/svg">
<g clip-path="url(#clip0_247_9909)">
<path d="M9.33073 18.6673C10.038 18.6673 10.7162 18.3864 11.2163 17.8863C11.7164 17.3862 11.9974 16.7079 11.9974 16.0007C11.9974 15.2934 11.7164 14.6151 11.2163 14.115C10.7162 13.6149 10.038 13.334 9.33073 13.334C8.62349 13.334 7.94521 13.6149 7.44511 14.115C6.94501 14.6151 6.66406 15.2934 6.66406 16.0007C6.66406 16.7079 6.94501 17.3862 7.44511 17.8863C7.94521 18.3864 8.62349 18.6673 9.33073 18.6673ZM18.6641 16.0007C18.6641 16.7079 18.3831 17.3862 17.883 17.8863C17.3829 18.3864 16.7046 18.6673 15.9974 18.6673C15.2902 18.6673 14.6119 18.3864 14.1118 17.8863C13.6117 17.3862 13.3307 16.7079 13.3307 16.0007C13.3307 15.2934 13.6117 14.6151 14.1118 14.115C14.6119 13.6149 15.2902 13.334 15.9974 13.334C16.7046 13.334 17.3829 13.6149 17.883 14.115C18.3831 14.6151 18.6641 15.2934 18.6641 16.0007ZM22.6641 18.6673C23.3713 18.6673 24.0496 18.3864 24.5497 17.8863C25.0498 17.3862 25.3307 16.7079 25.3307 16.0007C25.3307 15.2934 25.0498 14.6151 24.5497 14.115C24.0496 13.6149 23.3713 13.334 22.6641 13.334C21.9568 13.334 21.2785 13.6149 20.7784 14.115C20.2783 14.6151 19.9974 15.2934 19.9974 16.0007C19.9974 16.7079 20.2783 17.3862 20.7784 17.8863C21.2785 18.3864 21.9568 18.6673 22.6641 18.6673Z" fill="#5B6670"/>
<path fill-rule="evenodd" clip-rule="evenodd" d="M32 16C32 24.836 24.836 32 16 32C7.164 32 0 24.836 0 16C0 7.164 7.164 0 16 0C24.836 0 32 7.164 32 16ZM29.3333 16C29.3333 23.364 23.364 29.3333 16 29.3333C8.636 29.3333 2.66667 23.364 2.66667 16C2.66667 8.636 8.636 2.66667 16 2.66667C23.364 2.66667 29.3333 8.636 29.3333 16Z" fill="#5B6670"/>
</g>
<defs>
<clipPath id="clip0_247_9909">
<rect width="32" height="32" fill="white"/>
</clipPath>
</defs>
</svg>
