<svg width="176" height="156" viewBox="0 0 176 156" fill="none" xmlns="http://www.w3.org/2000/svg">
<path d="M81.1203 18.5921C84.2199 13.3694 91.7801 13.3693 94.8797 18.5921L160.503 129.167C163.668 134.5 159.825 141.25 153.624 141.25H22.3763C16.1751 141.25 12.3317 134.5 15.4966 129.167L81.1203 18.5921Z" fill="white"/>
<path d="M69.641 14.5103L69.641 14.5103L7.88117 120.367L7.88013 120.369C-0.335574 134.467 9.95389 152 26.2475 152H149.753C166.039 152 176.337 134.468 168.121 120.369L168.12 120.367L106.36 14.5103L102.923 16.5153L106.36 14.5103C98.1837 0.496565 77.8172 0.496561 69.641 14.5103ZM151.198 133.368L153.19 136.836L151.198 133.368C150.758 133.62 150.257 133.756 149.745 133.758H26.2548C25.7416 133.756 25.2398 133.621 24.7998 133.368C24.3588 133.115 23.9969 132.753 23.7469 132.324C23.4971 131.895 23.3668 131.411 23.3663 130.92C23.3658 130.431 23.4943 129.948 23.7417 129.519C23.7425 129.518 23.7433 129.517 23.7441 129.515L85.4853 23.6789C85.4861 23.6776 85.4868 23.6764 85.4875 23.6751C85.7389 23.2486 86.1009 22.8903 86.5412 22.6394C86.9829 22.3875 87.4862 22.2537 88.0005 22.2537C88.5147 22.2537 89.018 22.3875 89.4597 22.6394C89.8999 22.8903 90.2619 23.2484 90.5132 23.6749C90.514 23.6762 90.5148 23.6776 90.5156 23.6789L152.255 129.518C152.256 129.52 152.257 129.522 152.258 129.524C152.504 129.952 152.632 130.434 152.631 130.922C152.63 131.412 152.499 131.896 152.25 132.325C152 132.754 151.638 133.115 151.198 133.368Z" fill="#D05559" stroke="white" stroke-width="8"/>
<path d="M94.52 113.862C94.52 115.672 93.8307 117.409 92.6036 118.689C91.3765 119.97 89.7123 120.689 87.9769 120.689C86.2416 120.689 84.5773 119.97 83.3503 118.689C82.1232 117.409 81.4338 115.672 81.4338 113.862C81.4338 112.051 82.1232 110.314 83.3503 109.034C84.5773 107.753 86.2416 107.034 87.9769 107.034C89.7123 107.034 91.3765 107.753 92.6036 109.034C93.8307 110.314 94.52 112.051 94.52 113.862ZM92.8842 57.5331C92.8842 56.175 92.3672 54.8725 91.4469 53.9122C90.5266 52.9519 89.2784 52.4124 87.9769 52.4124C86.6754 52.4124 85.4272 52.9519 84.5069 53.9122C83.5866 54.8725 83.0696 56.175 83.0696 57.5331V88.2577C83.0696 89.6158 83.5866 90.9183 84.5069 91.8786C85.4272 92.839 86.6754 93.3785 87.9769 93.3785C89.2784 93.3785 90.5266 92.839 91.4469 91.8786C92.3672 90.9183 92.8842 89.6158 92.8842 88.2577V57.5331Z" fill="#D05559"/>
</svg>
