<svg width="25" height="25" viewBox="0 0 25 25" fill="none" xmlns="http://www.w3.org/2000/svg">
<path d="M8.78906 9.375C8.78906 9.2196 8.8508 9.07056 8.96068 8.96068C9.07056 8.8508 9.2196 8.78906 9.375 8.78906H15.625C15.7804 8.78906 15.9294 8.8508 16.0393 8.96068C16.1492 9.07056 16.2109 9.2196 16.2109 9.375C16.2109 9.5304 16.1492 9.67944 16.0393 9.78932C15.9294 9.89921 15.7804 9.96094 15.625 9.96094H9.375C9.2196 9.96094 9.07056 9.89921 8.96068 9.78932C8.8508 9.67944 8.78906 9.5304 8.78906 9.375ZM9.375 13.0859H15.625C15.7804 13.0859 15.9294 13.0242 16.0393 12.9143C16.1492 12.8044 16.2109 12.6554 16.2109 12.5C16.2109 12.3446 16.1492 12.1956 16.0393 12.0857C15.9294 11.9758 15.7804 11.9141 15.625 11.9141H9.375C9.2196 11.9141 9.07056 11.9758 8.96068 12.0857C8.8508 12.1956 8.78906 12.3446 8.78906 12.5C8.78906 12.6554 8.8508 12.8044 8.96068 12.9143C9.07056 13.0242 9.2196 13.0859 9.375 13.0859ZM12.5 15.0391H9.375C9.2196 15.0391 9.07056 15.1008 8.96068 15.2107C8.8508 15.3206 8.78906 15.4696 8.78906 15.625C8.78906 15.7804 8.8508 15.9294 8.96068 16.0393C9.07056 16.1492 9.2196 16.2109 9.375 16.2109H12.5C12.6554 16.2109 12.8044 16.1492 12.9143 16.0393C13.0242 15.9294 13.0859 15.7804 13.0859 15.625C13.0859 15.4696 13.0242 15.3206 12.9143 15.2107C12.8044 15.1008 12.6554 15.0391 12.5 15.0391ZM21.6797 4.6875V15.3018C21.68 15.4814 21.6448 15.6592 21.5761 15.8252C21.5074 15.9911 21.4065 16.1418 21.2793 16.2686L16.2686 21.2793C16.1418 21.4065 15.9911 21.5074 15.8252 21.5761C15.6592 21.6448 15.4814 21.68 15.3018 21.6797H4.6875C4.3249 21.6797 3.97715 21.5356 3.72075 21.2792C3.46436 21.0229 3.32031 20.6751 3.32031 20.3125V4.6875C3.32031 4.3249 3.46436 3.97715 3.72075 3.72075C3.97715 3.46436 4.3249 3.32031 4.6875 3.32031H20.3125C20.6751 3.32031 21.0229 3.46436 21.2792 3.72075C21.5356 3.97715 21.6797 4.3249 21.6797 4.6875ZM4.6875 20.5078H15.0391V15.625C15.0391 15.4696 15.1008 15.3206 15.2107 15.2107C15.3206 15.1008 15.4696 15.0391 15.625 15.0391H20.5078V4.6875C20.5078 4.6357 20.4872 4.58602 20.4506 4.54939C20.414 4.51276 20.3643 4.49219 20.3125 4.49219H4.6875C4.6357 4.49219 4.58602 4.51276 4.54939 4.54939C4.51276 4.58602 4.49219 4.6357 4.49219 4.6875V20.3125C4.49219 20.3643 4.51276 20.414 4.54939 20.4506C4.58602 20.4872 4.6357 20.5078 4.6875 20.5078ZM19.6797 16.2109H16.2109V19.6797L19.6797 16.2109Z" fill="#5B6670"/>
</svg>
