<svg width="20" height="20" viewBox="0 0 20 20" fill="none" xmlns="http://www.w3.org/2000/svg">
<path d="M8.88889 17.4V10.5L2.22222 7V13.8L8.88889 17.4ZM11.1111 17.4L17.7778 13.9V7.1L11.1111 10.6V17.4ZM8.88889 19.7L1.11111 15.7C0.777778 15.5 0.444448 15.3 0.333337 15C0.222226 14.7 0 14.4 0 14V6C0 5.6 0.111115 5.3 0.333337 5C0.555559 4.7 0.777778 4.5 1.11111 4.3L8.88889 0.3C9.22222 0.1 9.55556 0 10 0C10.3333 0 10.7778 0.1 11.1111 0.3L18.8889 4.3C19.2222 4.5 19.5556 4.7 19.6667 5C19.8889 5.3 20 5.6 20 6V14C20 14.4 19.8889 14.7 19.6667 15C19.4444 15.3 19.2222 15.5 18.8889 15.7L11.1111 19.7C10.7778 19.9 10.3333 20 10 20C9.66667 20 9.22222 19.9 8.88889 19.7ZM14.4444 6.5L16.5555 5.4L10 2L7.8889 3.1L14.4444 6.5ZM10 8.9L12.1111 7.8L5.55556 4.3L3.44445 5.4L10 8.9Z" fill="white"/>
</svg>
