<svg width="25" height="27" viewBox="0 0 25 27" fill="none" xmlns="http://www.w3.org/2000/svg">
<g clip-path="url(#clip0_1349_2935)">
<path d="M0.332031 25V3.66669H4.84537V0.693359H6.28136V3.66669H15.82V0.693359H17.1534V3.66669H21.6654V12.8227C21.4485 12.7427 21.2289 12.6831 21.0067 12.644C20.7845 12.6049 20.5596 12.5689 20.332 12.536V11.1547H1.66536V23.6667H11.4254C11.4947 23.9156 11.5836 24.1471 11.692 24.3614C11.8005 24.5747 11.9138 24.7876 12.032 25H0.332031ZM19.512 26.3334C18.0267 26.3334 16.7663 25.816 15.7307 24.7814C14.696 23.7449 14.1787 22.4845 14.1787 21C14.1787 19.5156 14.696 18.2556 15.7307 17.22C16.7654 16.1845 18.0254 15.6667 19.5107 15.6667C20.996 15.6667 22.2565 16.1845 23.292 17.22C24.3276 18.2556 24.8454 19.5156 24.8454 21C24.8454 22.4845 24.3276 23.7449 23.292 24.7814C22.2565 25.8178 20.9965 26.3351 19.512 26.3334ZM21.7187 23.936L22.4467 23.208L20.024 20.78V17.1534H18.9987V21.216L21.7187 23.936Z" fill="#5B6670"/>
</g>
<defs>
<clipPath id="clip0_1349_2935">
<rect width="25" height="27" fill="white"/>
</clipPath>
</defs>
</svg>
