<svg width="43" height="43" viewBox="0 0 43 43" fill="none" xmlns="http://www.w3.org/2000/svg">
<path d="M10.7057 0.916016C9.66696 0.916016 8.67074 1.32866 7.93623 2.06318C7.20171 2.7977 6.78906 3.79392 6.78906 4.83268V30.291C6.78906 31.3298 7.20171 32.326 7.93623 33.0605C8.67074 33.795 9.66696 34.2077 10.7057 34.2077H18.8798C18.6525 33.2451 18.5381 32.2593 18.5391 31.2702H10.7057C10.446 31.2702 10.197 31.167 10.0134 30.9834C9.82972 30.7998 9.72656 30.5507 9.72656 30.291V4.83268C9.72656 4.57299 9.82972 4.32394 10.0134 4.14031C10.197 3.95668 10.446 3.85352 10.7057 3.85352H21.4766V10.2181C21.4766 12.1098 23.0119 13.6452 24.9036 13.6452H31.2682V18.541C32.2813 18.5436 33.2605 18.6572 34.2057 18.8818V12.2117C34.2055 11.173 33.7927 10.1769 33.0581 9.4426L25.6791 2.0636C24.9448 1.32903 23.9487 0.916237 22.9101 0.916016H10.7057ZM24.4141 10.2181V4.95018L30.1716 10.7077H24.9036C24.7738 10.7077 24.6493 10.6561 24.5575 10.5643C24.4656 10.4725 24.4141 10.3479 24.4141 10.2181ZM9.72656 37.1452H19.9726C20.5328 38.2199 21.2437 39.209 22.0836 40.0827H9.72656C7.38934 40.0827 5.14785 39.1542 3.49518 37.5016C1.84252 35.8489 0.914063 33.6074 0.914062 31.2702V27.8431C0.914063 27.4536 1.06881 27.08 1.34425 26.8045C1.61969 26.5291 1.99328 26.3743 2.38281 26.3743C2.77235 26.3743 3.14593 26.5291 3.42138 26.8045C3.69682 27.08 3.85156 27.4536 3.85156 27.8431V31.2702C3.85156 32.8283 4.47053 34.3227 5.57231 35.4244C6.67409 36.5262 8.16842 37.1452 9.72656 37.1452ZM12.6641 8.25977C12.6641 7.87023 12.8188 7.49665 13.0943 7.2212C13.3697 6.94576 13.7433 6.79102 14.1328 6.79102H17.0703C17.4599 6.79102 17.8334 6.94576 18.1089 7.2212C18.3843 7.49665 18.5391 7.87023 18.5391 8.25977C18.5391 8.6493 18.3843 9.02289 18.1089 9.29833C17.8334 9.57377 17.4599 9.72852 17.0703 9.72852H14.1328C13.7433 9.72852 13.3697 9.57377 13.0943 9.29833C12.8188 9.02289 12.6641 8.6493 12.6641 8.25977ZM14.1328 12.666C13.7433 12.666 13.3697 12.8208 13.0943 13.0962C12.8188 13.3716 12.6641 13.7452 12.6641 14.1348C12.6641 14.5243 12.8188 14.8979 13.0943 15.1733C13.3697 15.4488 13.7433 15.6035 14.1328 15.6035H17.0703C17.4599 15.6035 17.8334 15.4488 18.1089 15.1733C18.3843 14.8979 18.5391 14.5243 18.5391 14.1348C18.5391 13.7452 18.3843 13.3716 18.1089 13.0962C17.8334 12.8208 17.4599 12.666 17.0703 12.666H14.1328ZM14.1328 18.541C13.7433 18.541 13.3697 18.6958 13.0943 18.9712C12.8188 19.2466 12.6641 19.6202 12.6641 20.0098C12.6641 20.3993 12.8188 20.7729 13.0943 21.0483C13.3697 21.3238 13.7433 21.4785 14.1328 21.4785H17.0703C17.4599 21.4785 17.8334 21.3238 18.1089 21.0483C18.3843 20.7729 18.5391 20.3993 18.5391 20.0098C18.5391 19.6202 18.3843 19.2466 18.1089 18.9712C17.8334 18.6958 17.4599 18.541 17.0703 18.541H14.1328ZM42.0391 31.2702C42.0391 28.4136 40.9043 25.674 38.8844 23.6541C36.8644 21.6341 34.1248 20.4993 31.2682 20.4993C28.4116 20.4993 25.672 21.6341 23.6521 23.6541C21.6322 25.674 20.4974 28.4136 20.4974 31.2702C20.4974 34.1268 21.6322 36.8664 23.6521 38.8863C25.672 40.9062 28.4116 42.041 31.2682 42.041C34.1248 42.041 36.8644 40.9062 38.8844 38.8863C40.9043 36.8664 42.0391 34.1268 42.0391 31.2702ZM32.2474 32.2493L32.2494 37.1511C32.2494 37.4108 32.1462 37.6598 31.9626 37.8434C31.7789 38.0271 31.5299 38.1302 31.2702 38.1302C31.0105 38.1302 30.7614 38.0271 30.5778 37.8434C30.3942 37.6598 30.291 37.4108 30.291 37.1511V32.2493H25.3854C25.1257 32.2493 24.8766 32.1462 24.693 31.9626C24.5094 31.7789 24.4062 31.5299 24.4062 31.2702C24.4062 31.0105 24.5094 30.7614 24.693 30.5778C24.8766 30.3942 25.1257 30.291 25.3854 30.291H30.2891V25.3952C30.2891 25.1355 30.3922 24.8864 30.5759 24.7028C30.7595 24.5192 31.0085 24.416 31.2682 24.416C31.5279 24.416 31.777 24.5192 31.9606 24.7028C32.1442 24.8864 32.2474 25.1355 32.2474 25.3952V30.291H37.1374C37.397 30.291 37.6461 30.3942 37.8297 30.5778C38.0134 30.7614 38.1165 31.0105 38.1165 31.2702C38.1165 31.5299 38.0134 31.7789 37.8297 31.9626C37.6461 32.1462 37.397 32.2493 37.1374 32.2493H32.2474Z" fill="#246487"/>
</svg>
