<svg width="42" height="42" viewBox="0 0 42 42" fill="none" xmlns="http://www.w3.org/2000/svg">
<path d="M16.3922 5.6873H22.1077C24.0188 5.6873 25.5343 5.6873 26.754 5.78705C28.0035 5.88855 29.0588 6.10205 30.0247 6.59205C31.5886 7.38978 32.8598 8.66216 33.656 10.2268C34.1478 11.1893 34.3613 12.2463 34.4628 13.4958C34.5625 14.7155 34.5625 16.231 34.5625 18.142V18.1998C34.5625 18.5479 34.4242 18.8817 34.1781 19.1279C33.9319 19.374 33.5981 19.5123 33.25 19.5123C32.9019 19.5123 32.5681 19.374 32.3219 19.1279C32.0758 18.8817 31.9375 18.5479 31.9375 18.1998C31.9375 16.2188 31.9375 14.81 31.8465 13.7093C31.759 12.6243 31.5893 11.9505 31.318 11.4168C30.7728 10.3469 29.9029 9.47703 28.833 8.9318C28.2992 8.66055 27.6255 8.49255 26.5405 8.4033C25.438 8.31405 24.031 8.3123 22.05 8.3123H16.45C14.469 8.3123 13.0603 8.3123 11.9595 8.4033C10.8745 8.4908 10.2008 8.66055 9.667 8.9318C8.59711 9.47703 7.72723 10.3469 7.182 11.4168C6.91075 11.9505 6.74275 12.6243 6.6535 13.7093C6.56425 14.8118 6.5625 16.2188 6.5625 18.1998V23.6773C6.67694 23.5527 6.79362 23.4302 6.9125 23.3098C7.4515 22.7673 8.0185 22.3105 8.72375 22.0515C9.79057 21.6616 10.9609 21.6616 12.0278 22.0515C12.7312 22.3105 13.2983 22.7655 13.8355 23.308C14.357 23.833 14.9415 24.533 15.6485 25.3818L15.6853 25.4273C15.6978 25.4428 15.7134 25.4554 15.7312 25.4643C15.7489 25.4733 15.7684 25.4783 15.7883 25.4791C15.8081 25.48 15.828 25.4765 15.8464 25.4691C15.8649 25.4617 15.8815 25.4504 15.8953 25.436L21.1925 19.9498C21.8627 19.2568 22.421 18.6775 22.9163 18.2435C23.4307 17.792 23.9627 17.4158 24.6068 17.2005C25.5934 16.8721 26.6599 16.8721 27.6465 17.2005C28.4638 17.4735 29.1165 18.0143 29.7868 18.6583C29.9169 18.7763 30.0219 18.9192 30.0958 19.0786C30.1696 19.238 30.2108 19.4106 30.2167 19.5861C30.2226 19.7617 30.1933 19.9366 30.1303 20.1006C30.0674 20.2646 29.9722 20.4143 29.8504 20.5408C29.7285 20.6674 29.5825 20.7682 29.421 20.8372C29.2595 20.9063 29.0858 20.9422 28.9101 20.9429C28.7345 20.9436 28.5605 20.9091 28.3984 20.8413C28.2364 20.7735 28.0896 20.6739 27.9667 20.5483C27.3455 19.9515 27.0463 19.7678 26.817 19.6908C26.3688 19.5417 25.8844 19.5417 25.4362 19.6908C25.2647 19.7485 25.039 19.8728 24.647 20.2158C24.2445 20.5693 23.7598 21.0698 23.0422 21.8135L17.7852 27.256C17.5155 27.5355 17.1899 27.7551 16.8297 27.9003C16.4695 28.0456 16.0827 28.1134 15.6945 28.0992C15.3064 28.085 14.9256 27.9891 14.5769 27.8179C14.2283 27.6467 13.9196 27.404 13.671 27.1055C12.9167 26.2025 12.404 25.59 11.9735 25.156C11.5535 24.7308 11.3085 24.582 11.1283 24.5155C10.6429 24.338 10.1104 24.338 9.625 24.5155C9.4465 24.582 9.2015 24.7308 8.77975 25.156C8.34925 25.59 7.8365 26.2025 7.08225 27.1055L6.97375 27.2368C6.87114 27.3599 6.77137 27.4854 6.6745 27.613L6.6675 27.6235C6.64808 27.6642 6.63397 27.7071 6.6255 27.7513V27.8545L6.643 28.1223L6.6465 28.1818C6.734 29.3315 6.90375 30.0298 7.18375 30.5793C7.72898 31.6492 8.59886 32.5191 9.66875 33.0643C10.2025 33.3373 10.8763 33.5053 11.9613 33.5945C13.0638 33.6838 14.4707 33.6855 16.4517 33.6855H21C21.3481 33.6855 21.6819 33.8238 21.9281 34.07C22.1742 34.3161 22.3125 34.65 22.3125 34.998C22.3125 35.3461 22.1742 35.68 21.9281 35.9261C21.6819 36.1723 21.3481 36.3105 21 36.3105H16.3922C14.4812 36.3105 12.9657 36.3105 11.746 36.2108C10.8867 36.1408 10.1185 36.0183 9.408 35.7873C9.08887 35.6821 8.77773 35.554 8.477 35.404C6.91301 34.6075 5.64127 33.3364 4.844 31.7728C4.35225 30.8068 4.13875 29.7515 4.03725 28.502L4.025 28.3445L4.02325 28.3148C4.01392 28.204 4.00633 28.0873 4.0005 27.9648C3.9375 26.8448 3.9375 25.4973 3.9375 23.8558V18.1403C3.9375 16.2293 3.9375 14.7138 4.03725 13.494C4.13875 12.2445 4.35225 11.1893 4.84225 10.225C5.63968 8.66052 6.91209 7.38872 8.477 6.59205C9.4395 6.1003 10.4965 5.8868 11.746 5.7853C12.9657 5.68555 14.4812 5.6873 16.3922 5.6873Z" fill="#4197CB"/>
<path d="M10.9375 15.75C10.9375 15.118 11.062 14.4922 11.3038 13.9083C11.5457 13.3245 11.9002 12.7939 12.347 12.347C12.7939 11.9002 13.3245 11.5457 13.9083 11.3038C14.4922 11.062 15.118 10.9375 15.75 10.9375C16.382 10.9375 17.0078 11.062 17.5917 11.3038C18.1755 11.5457 18.7061 11.9002 19.153 12.347C19.5998 12.7939 19.9543 13.3245 20.1962 13.9083C20.438 14.4922 20.5625 15.118 20.5625 15.75C20.5625 17.0264 20.0555 18.2504 19.153 19.153C18.2504 20.0555 17.0264 20.5625 15.75 20.5625C14.4736 20.5625 13.2496 20.0555 12.347 19.153C11.4445 18.2504 10.9375 17.0264 10.9375 15.75ZM15.75 13.5625C15.1698 13.5625 14.6134 13.793 14.2032 14.2032C13.793 14.6134 13.5625 15.1698 13.5625 15.75C13.5625 16.3302 13.793 16.8866 14.2032 17.2968C14.6134 17.707 15.1698 17.9375 15.75 17.9375C16.3302 17.9375 16.8866 17.707 17.2968 17.2968C17.707 16.8866 17.9375 16.3302 17.9375 15.75C17.9375 15.1698 17.707 14.6134 17.2968 14.2032C16.8866 13.793 16.3302 13.5625 15.75 13.5625ZM34.5625 24.5C34.5625 24.1519 34.4242 23.8181 34.1781 23.5719C33.9319 23.3258 33.5981 23.1875 33.25 23.1875C32.9019 23.1875 32.5681 23.3258 32.3219 23.5719C32.0758 23.8181 31.9375 24.1519 31.9375 24.5V28.4375H28C27.6519 28.4375 27.3181 28.5758 27.0719 28.8219C26.8258 29.0681 26.6875 29.4019 26.6875 29.75C26.6875 30.0981 26.8258 30.4319 27.0719 30.6781C27.3181 30.9242 27.6519 31.0625 28 31.0625H31.9375V35C31.9375 35.3481 32.0758 35.6819 32.3219 35.9281C32.5681 36.1742 32.9019 36.3125 33.25 36.3125C33.5981 36.3125 33.9319 36.1742 34.1781 35.9281C34.4242 35.6819 34.5625 35.3481 34.5625 35V31.0625H38.5C38.8481 31.0625 39.1819 30.9242 39.4281 30.6781C39.6742 30.4319 39.8125 30.0981 39.8125 29.75C39.8125 29.4019 39.6742 29.0681 39.4281 28.8219C39.1819 28.5758 38.8481 28.4375 38.5 28.4375H34.5625V24.5Z" fill="#5B6670"/>
</svg>
