<svg width="31" height="35" viewBox="0 0 31 35" fill="none" xmlns="http://www.w3.org/2000/svg">
<path d="M0 2.1875C0 1.60734 0.230468 1.05094 0.640704 0.640704C1.05094 0.230468 1.60734 0 2.1875 0L24.0625 0C24.6427 0 25.1991 0.230468 25.6093 0.640704C26.0195 1.05094 26.25 1.60734 26.25 2.1875V16.4062C26.25 16.6963 26.1348 16.9745 25.9296 17.1796C25.7245 17.3848 25.4463 17.5 25.1562 17.5C24.8662 17.5 24.588 17.3848 24.3829 17.1796C24.1777 16.9745 24.0625 16.6963 24.0625 16.4062V2.1875H2.1875V32.8125H8.75V27.3438C8.75 27.0537 8.86523 26.7755 9.07035 26.5704C9.27547 26.3652 9.55367 26.25 9.84375 26.25H13.125V35H2.1875C1.60734 35 1.05094 34.7695 0.640704 34.3593C0.230468 33.9491 0 33.3927 0 32.8125V2.1875Z" fill="#5B6670"/>
<path d="M5.46875 4.375C5.17867 4.375 4.90047 4.49023 4.69535 4.69535C4.49023 4.90047 4.375 5.17867 4.375 5.46875V7.65625C4.375 7.94633 4.49023 8.22453 4.69535 8.42965C4.90047 8.63477 5.17867 8.75 5.46875 8.75H7.65625C7.94633 8.75 8.22453 8.63477 8.42965 8.42965C8.63477 8.22453 8.75 7.94633 8.75 7.65625V5.46875C8.75 5.17867 8.63477 4.90047 8.42965 4.69535C8.22453 4.49023 7.94633 4.375 7.65625 4.375H5.46875ZM12.0312 4.375C11.7412 4.375 11.463 4.49023 11.2579 4.69535C11.0527 4.90047 10.9375 5.17867 10.9375 5.46875V7.65625C10.9375 7.94633 11.0527 8.22453 11.2579 8.42965C11.463 8.63477 11.7412 8.75 12.0312 8.75H14.2188C14.5088 8.75 14.787 8.63477 14.9921 8.42965C15.1973 8.22453 15.3125 7.94633 15.3125 7.65625V5.46875C15.3125 5.17867 15.1973 4.90047 14.9921 4.69535C14.787 4.49023 14.5088 4.375 14.2188 4.375H12.0312ZM18.5938 4.375C18.3037 4.375 18.0255 4.49023 17.8204 4.69535C17.6152 4.90047 17.5 5.17867 17.5 5.46875V7.65625C17.5 7.94633 17.6152 8.22453 17.8204 8.42965C18.0255 8.63477 18.3037 8.75 18.5938 8.75H20.7812C21.0713 8.75 21.3495 8.63477 21.5546 8.42965C21.7598 8.22453 21.875 7.94633 21.875 7.65625V5.46875C21.875 5.17867 21.7598 4.90047 21.5546 4.69535C21.3495 4.49023 21.0713 4.375 20.7812 4.375H18.5938ZM5.46875 10.9375C5.17867 10.9375 4.90047 11.0527 4.69535 11.2579C4.49023 11.463 4.375 11.7412 4.375 12.0312V14.2188C4.375 14.5088 4.49023 14.787 4.69535 14.9921C4.90047 15.1973 5.17867 15.3125 5.46875 15.3125H7.65625C7.94633 15.3125 8.22453 15.1973 8.42965 14.9921C8.63477 14.787 8.75 14.5088 8.75 14.2188V12.0312C8.75 11.7412 8.63477 11.463 8.42965 11.2579C8.22453 11.0527 7.94633 10.9375 7.65625 10.9375H5.46875ZM12.0312 10.9375C11.7412 10.9375 11.463 11.0527 11.2579 11.2579C11.0527 11.463 10.9375 11.7412 10.9375 12.0312V14.2188C10.9375 14.5088 11.0527 14.787 11.2579 14.9921C11.463 15.1973 11.7412 15.3125 12.0312 15.3125H14.2188C14.5088 15.3125 14.787 15.1973 14.9921 14.9921C15.1973 14.787 15.3125 14.5088 15.3125 14.2188V12.0312C15.3125 11.7412 15.1973 11.463 14.9921 11.2579C14.787 11.0527 14.5088 10.9375 14.2188 10.9375H12.0312ZM18.5938 10.9375C18.3037 10.9375 18.0255 11.0527 17.8204 11.2579C17.6152 11.463 17.5 11.7412 17.5 12.0312V14.2188C17.5 14.5088 17.6152 14.787 17.8204 14.9921C18.0255 15.1973 18.3037 15.3125 18.5938 15.3125H20.7812C21.0713 15.3125 21.3495 15.1973 21.5546 14.9921C21.7598 14.787 21.875 14.5088 21.875 14.2188V12.0312C21.875 11.7412 21.7598 11.463 21.5546 11.2579C21.3495 11.0527 21.0713 10.9375 20.7812 10.9375H18.5938ZM5.46875 17.5C5.17867 17.5 4.90047 17.6152 4.69535 17.8204C4.49023 18.0255 4.375 18.3037 4.375 18.5938V20.7812C4.375 21.0713 4.49023 21.3495 4.69535 21.5546C4.90047 21.7598 5.17867 21.875 5.46875 21.875H7.65625C7.94633 21.875 8.22453 21.7598 8.42965 21.5546C8.63477 21.3495 8.75 21.0713 8.75 20.7812V18.5938C8.75 18.3037 8.63477 18.0255 8.42965 17.8204C8.22453 17.6152 7.94633 17.5 7.65625 17.5H5.46875ZM12.0312 17.5C11.7412 17.5 11.463 17.6152 11.2579 17.8204C11.0527 18.0255 10.9375 18.3037 10.9375 18.5938V20.7812C10.9375 21.0713 11.0527 21.3495 11.2579 21.5546C11.463 21.7598 11.7412 21.875 12.0312 21.875H14.2188C14.5088 21.875 14.787 21.7598 14.9921 21.5546C15.1973 21.3495 15.3125 21.0713 15.3125 20.7812V18.5938C15.3125 18.3037 15.1973 18.0255 14.9921 17.8204C14.787 17.6152 14.5088 17.5 14.2188 17.5H12.0312ZM21.6256 20.6938C22.0194 19.3528 23.9181 19.3528 24.3141 20.6938L24.4081 21.0175C24.4669 21.2183 24.5699 21.4034 24.7096 21.5592C24.8493 21.715 25.0222 21.8374 25.2154 21.9176C25.4087 21.9977 25.6175 22.0336 25.8264 22.0224C26.0354 22.0113 26.2392 21.9534 26.4228 21.8531L26.7203 21.6912C27.9475 21.0219 29.2906 22.365 28.6234 23.5922L28.4594 23.8897C28.3595 24.0732 28.302 24.2768 28.291 24.4855C28.2801 24.6942 28.316 24.9027 28.3962 25.0957C28.4763 25.2887 28.5986 25.4613 28.7541 25.6008C28.9097 25.7404 29.0945 25.8434 29.295 25.9022L29.6209 26.0006C30.9597 26.3944 30.9597 28.2931 29.6209 28.6891L29.2928 28.7831C29.0924 28.8424 28.9077 28.9458 28.7525 29.0857C28.5972 29.2256 28.4752 29.3985 28.3955 29.5917C28.3158 29.7849 28.2803 29.9936 28.2918 30.2023C28.3032 30.411 28.3612 30.6145 28.4616 30.7978L28.6234 31.0953C29.2906 32.3225 27.9475 33.6656 26.7203 32.9984L26.4228 32.8344C26.2393 32.7345 26.0357 32.677 25.827 32.666C25.6183 32.6551 25.4098 32.691 25.2168 32.7712C25.0238 32.8513 24.8512 32.9736 24.7117 33.1291C24.5721 33.2847 24.4691 33.4695 24.4103 33.67L24.3119 33.9959C23.9181 35.3347 22.0194 35.3347 21.6234 33.9959L21.5294 33.6678C21.4701 33.4674 21.3667 33.2827 21.2268 33.1275C21.0869 32.9722 20.914 32.8502 20.7208 32.7705C20.5276 32.6908 20.3189 32.6553 20.1102 32.6668C19.9015 32.6782 19.698 32.7362 19.5147 32.8366L19.2172 32.9984C17.99 33.6656 16.6469 32.3225 17.3141 31.0953L17.4781 30.7978C17.578 30.6143 17.6355 30.4107 17.6465 30.202C17.6574 29.9933 17.6215 29.7848 17.5413 29.5918C17.4612 29.3988 17.3389 29.2262 17.1834 29.0867C17.0278 28.9471 16.843 28.8441 16.6425 28.7853L16.3188 28.6869C14.9778 28.2931 14.9778 26.3944 16.3188 25.9984L16.6425 25.9044C16.8433 25.8456 17.0284 25.7426 17.1842 25.6029C17.34 25.4632 17.4624 25.2903 17.5426 25.0971C17.6227 24.9038 17.6586 24.695 17.6474 24.4861C17.6363 24.2771 17.5784 24.0733 17.4781 23.8897L17.3163 23.5922C16.6469 22.365 17.99 21.0219 19.2172 21.6891L19.5147 21.8531C19.6982 21.953 19.9018 22.0105 20.1105 22.0215C20.3192 22.0324 20.5277 21.9965 20.7207 21.9163C20.9137 21.8362 21.0863 21.7139 21.2258 21.5584C21.3654 21.4028 21.4684 21.218 21.5272 21.0175L21.6256 20.6938ZM26.25 27.3438C26.25 26.9128 26.1651 26.4862 26.0002 26.0881C25.8353 25.69 25.5936 25.3282 25.2889 25.0236C24.9843 24.7189 24.6225 24.4772 24.2244 24.3123C23.8263 24.1474 23.3997 24.0625 22.9688 24.0625C22.5378 24.0625 22.1112 24.1474 21.7131 24.3123C21.315 24.4772 20.9532 24.7189 20.6486 25.0236C20.3439 25.3282 20.1022 25.69 19.9373 26.0881C19.7724 26.4862 19.6875 26.9128 19.6875 27.3438C19.6875 28.214 20.0332 29.0486 20.6486 29.6639C21.2639 30.2793 22.0985 30.625 22.9688 30.625C23.839 30.625 24.6736 30.2793 25.2889 29.6639C25.9043 29.0486 26.25 28.214 26.25 27.3438Z" fill="#5B6670"/>
</svg>
