<svg width="34" height="34" viewBox="0 0 34 34" fill="none" xmlns="http://www.w3.org/2000/svg">
<path d="M22.2022 17.8475L22.2022 17.8471C22.226 17.6003 22.3413 17.3713 22.5255 17.2053C22.7096 17.0393 22.9492 16.9483 23.197 16.95M22.2022 17.8475L23.1969 17M22.2022 17.8475C22.1809 18.0925 21.9906 18.3649 21.6316 18.5482L21.6316 18.5482L21.6312 18.5484C21.5585 18.5865 21.4866 18.6254 21.4156 18.6653L21.4153 18.6654C21.0172 18.8929 20.6382 18.9294 20.3711 18.8104C20.1485 18.71 19.8971 18.6941 19.6636 18.7656C19.4302 18.8371 19.2307 18.9911 19.1025 19.1989L19.1023 19.1991L18.2917 20.5311L18.2917 20.5311C18.1602 20.7472 18.1181 21.006 18.1742 21.2526C18.2304 21.4993 18.3804 21.7143 18.5924 21.8522L18.6197 21.8103L18.5922 21.8521C18.8042 21.9919 18.9619 22.308 18.9556 22.7453H18.9556V22.746L18.9556 22.87L18.9556 22.8707C18.9619 23.3081 18.8055 23.6241 18.5923 23.7638C18.3803 23.9017 18.2303 24.1168 18.1742 24.3634C18.1181 24.61 18.1602 24.8688 18.2917 25.0849L18.2917 25.0849L19.1023 26.4169L19.1025 26.4171C19.2307 26.6249 19.4302 26.7789 19.6636 26.8504C19.8971 26.9219 20.1486 26.906 20.3711 26.8056C20.6383 26.6866 21.0172 26.7231 21.4152 26.9505L22.2022 17.8475ZM23.197 16.95C23.1971 16.95 23.1972 16.95 23.1972 16.95L23.1969 17M23.197 16.95H23.1969V17M23.197 16.95H24.8193M23.1969 17H24.8194M24.8193 16.95C24.8192 16.95 24.8192 16.95 24.8191 16.95L24.8194 17M24.8193 16.95H24.8194V17M24.8193 16.95C25.0669 16.9486 25.3062 17.0398 25.49 17.2058C25.6739 17.3718 25.789 17.6005 25.8128 17.8471L25.8128 17.8473C25.8353 18.0924 26.0257 18.365 26.3846 18.5482L26.3847 18.5482C26.4577 18.5856 26.5298 18.6246 26.601 18.6655L24.8194 17M24.8194 28.616C25.0546 28.6174 25.2819 28.5308 25.4565 28.3731C25.6311 28.2155 25.7404 27.9983 25.763 27.7641C25.7875 27.497 25.9927 27.2117 26.3619 27.0233C26.4351 26.9854 26.5065 26.9467 26.5762 26.9071C26.9828 26.6748 27.3791 26.6322 27.6656 26.76L21.6544 27.0233C22.0235 27.2117 22.2288 27.497 22.252 27.7641C22.2746 27.9985 22.3841 28.2159 22.559 28.3736C22.7338 28.5312 22.9614 28.6177 23.1969 28.616M24.8194 28.616H23.1969M24.8194 28.616L24.8191 28.666C24.8192 28.666 24.8192 28.666 24.8193 28.666H24.8194V28.616ZM23.1969 28.616V28.666H23.197C23.1971 28.666 23.1971 28.666 23.1972 28.666L23.1969 28.616ZM22.2404 25.8733L22.2633 25.8289C22.2089 25.8008 22.1562 25.7724 22.1052 25.7435C21.5611 25.4309 20.8384 25.2309 20.1246 25.4226L19.6693 24.6733C20.1778 24.1691 20.3541 23.4568 20.3464 22.8529V22.7631C20.3541 22.1592 20.1778 21.4469 19.6693 20.9427L20.1246 20.1934C20.8381 20.385 21.5594 20.1852 22.1046 19.8728L22.2636 19.787C22.8044 19.5113 23.3287 19.0177 23.5203 18.3407H24.496C24.6876 19.0165 25.2118 19.5113 25.7527 19.787L25.9116 19.8728C26.4569 20.1852 27.1781 20.385 27.8904 20.1934L28.347 20.9427C27.8384 21.4469 27.6622 22.1592 27.6698 22.7632V22.8528C27.6622 23.4568 27.8384 24.1691 28.347 24.6733L27.8904 25.4226C27.1781 25.231 26.4569 25.4308 25.9116 25.7432L25.7527 25.829C25.2105 26.1047 24.6876 26.5983 24.4959 27.2753H23.5203C23.3286 26.5993 22.8041 26.1044 22.2631 25.8288L22.2404 25.8733ZM22.2404 25.8733C22.1853 25.8449 22.132 25.8161 22.0803 25.7868L27.9135 25.481C27.2061 25.277 26.4832 25.4732 25.9359 25.7868L25.7759 25.8733C25.2325 26.1495 24.7123 26.6464 24.5341 27.3253H23.4821C23.304 26.6477 22.7825 26.1495 22.2404 25.8733ZM26.1749 21.5856L26.1748 21.5855C25.471 20.431 23.9464 20.0622 22.7663 20.7081C21.5666 21.3639 21.1249 22.8523 21.8414 24.0304L21.8414 24.0305C22.5453 25.185 24.0698 25.5538 25.25 24.9079C26.4497 24.2521 26.8913 22.7637 26.1749 21.5856ZM23.4338 21.9265C23.9908 21.6226 24.6865 21.8161 24.9871 22.3086C25.2712 22.779 25.1185 23.3942 24.5825 23.6895C24.0254 23.9934 23.3298 23.7999 23.0292 23.3074C22.745 22.837 22.8977 22.2218 23.4338 21.9265Z" fill="#5B6670" stroke="#5B6670" stroke-width="0.1"/>
<path d="M12.95 3.05V8.95H3.05V3.05H12.95ZM3 0.95C2.45631 0.95 1.93488 1.16598 1.55043 1.55043C1.16598 1.93488 0.95 2.45631 0.95 3V9C0.95 9.54369 1.16598 10.0651 1.55043 10.4496C1.93488 10.834 2.45631 11.05 3 11.05H13C13.5437 11.05 14.0651 10.834 14.4496 10.4496C14.834 10.0651 15.05 9.54369 15.05 9V3C15.05 2.45631 14.834 1.93488 14.4496 1.55043C14.0651 1.16598 13.5437 0.95 13 0.95H3ZM12.95 17.05V30.95H3.05V17.05H12.95ZM3 14.95C2.45631 14.95 1.93488 15.166 1.55043 15.5504C1.16598 15.9349 0.95 16.4563 0.95 17V31C0.95 31.5437 1.16598 32.0651 1.55043 32.4496C1.93488 32.834 2.45631 33.05 3 33.05H13C13.5437 33.05 14.0651 32.834 14.4496 32.4496C14.834 32.0651 15.05 31.5437 15.05 31V17C15.05 16.4563 14.834 15.9349 14.4496 15.5504C14.0651 15.166 13.5437 14.95 13 14.95H3ZM30.95 3.05V12.15H21.05V3.05H30.95ZM21 0.95C20.4563 0.95 19.9349 1.16598 19.5504 1.55043C19.166 1.93488 18.95 2.45631 18.95 3V12.2C18.95 12.7437 19.166 13.2651 19.5504 13.6496C19.9349 14.034 20.4563 14.25 21 14.25H31C31.5437 14.25 32.0651 14.034 32.4496 13.6496C32.834 13.2651 33.05 12.7437 33.05 12.2V3C33.05 2.45631 32.834 1.93488 32.4496 1.55043C32.0651 1.16598 31.5437 0.95 31 0.95H21Z" fill="#5B6670" stroke="#5B6670" stroke-width="0.1"/>
</svg>
