<svg width="27" height="27" viewBox="0 0 27 27" fill="none" xmlns="http://www.w3.org/2000/svg">
<path d="M5.54545 26H21.4545M8.67841 6.40568L11.0898 8.81705M11.0898 8.81705C11.7291 8.17772 12.5959 7.81818 13.5 7.81818M11.0898 8.81705C10.4504 9.45637 10.0909 10.3231 10.0909 11.2273M10.0909 11.2273H6.68182M10.0909 11.2273C10.0909 12.1314 10.4504 12.9982 11.0898 13.6375M11.0898 13.6375L8.67841 16.0489M11.0898 13.6375C11.7291 14.2768 12.5959 14.6364 13.5 14.6364M13.5 14.6364V18.0455M13.5 14.6364C14.4041 14.6364 15.2709 14.2768 15.9102 13.6375M15.9102 13.6375L18.3216 16.0489M15.9102 13.6375C16.5496 12.9982 16.9091 12.1314 16.9091 11.2273M20.3182 11.2273H16.9091M16.9091 11.2273C16.9091 10.3231 16.5496 9.45637 15.9102 8.81705M18.3216 6.40568L15.9102 8.81705M15.9102 8.81705C15.2709 8.17772 14.4041 7.81818 13.5 7.81818M13.5 7.81818V4.40909M1 21.4545H26V1H1V21.4545ZM8.95455 26H18.0455V21.4545H8.95455V26Z" stroke="white" stroke-width="2"/>
</svg>
