<svg width="26" height="26" viewBox="0 0 26 26" fill="none" xmlns="http://www.w3.org/2000/svg">
<path d="M17.8533 14.5465C17.8766 14.3044 17.9897 14.0798 18.1703 13.917C18.351 13.7541 18.5861 13.6647 18.8293 13.6665H20.5053C20.7483 13.6651 20.983 13.7546 21.1634 13.9174C21.3437 14.0802 21.4566 14.3047 21.4799 14.5465C21.5053 14.8225 21.7173 15.1172 22.0986 15.3119C22.1733 15.3501 22.2471 15.3901 22.3199 15.4319C22.7399 15.6719 23.1493 15.7159 23.4453 15.5839C23.6638 15.4853 23.9106 15.4697 24.1398 15.5399C24.369 15.61 24.5648 15.7612 24.6906 15.9652L25.5279 17.3412C25.6567 17.5531 25.6977 17.8068 25.6425 18.0486C25.5872 18.2903 25.44 18.5009 25.2319 18.6359C24.9933 18.7932 24.8279 19.1399 24.8346 19.6025V19.7305C24.8279 20.1932 24.9933 20.5399 25.2319 20.6972C25.44 20.8321 25.5872 21.0428 25.6425 21.2845C25.6977 21.5262 25.6567 21.7799 25.5279 21.9919L24.6906 23.3679C24.5648 23.5718 24.369 23.723 24.1398 23.7932C23.9106 23.8634 23.6638 23.8477 23.4453 23.7492C23.1493 23.6172 22.7399 23.6612 22.3199 23.9012C22.2479 23.9421 22.1742 23.9821 22.0986 24.0212C21.7173 24.2159 21.5053 24.5105 21.4799 24.7865C21.4566 25.0284 21.3437 25.2528 21.1634 25.4157C20.983 25.5785 20.7483 25.668 20.5053 25.6665H18.8293C18.5861 25.6683 18.351 25.579 18.1703 25.4161C17.9897 25.2532 17.8766 25.0286 17.8533 24.7865C17.8293 24.5105 17.6173 24.2159 17.2359 24.0212C17.1612 23.9829 17.0874 23.9429 17.0146 23.9012C16.5946 23.6612 16.1853 23.6172 15.8893 23.7492C15.6708 23.8477 15.4239 23.8634 15.1948 23.7932C14.9656 23.723 14.7698 23.5718 14.6439 23.3679L13.8066 21.9919C13.6778 21.7801 13.6365 21.5265 13.6915 21.2848C13.7465 21.0431 13.8935 20.8323 14.1013 20.6972C14.3413 20.5399 14.5066 20.1932 14.4999 19.7305V19.6025C14.5066 19.1399 14.3399 18.7932 14.1013 18.6359C13.8935 18.5007 13.7465 18.29 13.6915 18.0483C13.6365 17.8066 13.6778 17.553 13.8066 17.3412L14.6439 15.9652C14.7698 15.7612 14.9656 15.61 15.1948 15.5399C15.4239 15.4697 15.6708 15.4853 15.8893 15.5839C16.1853 15.7159 16.5946 15.6719 17.0146 15.4319C17.0875 15.391 17.1613 15.351 17.2359 15.3119C17.6173 15.1172 17.8293 14.8225 17.8533 14.5465ZM19.1239 14.9999C18.9399 15.7012 18.4013 16.2145 17.8413 16.4999L17.6759 16.5892C17.1106 16.9132 16.3639 17.1159 15.6319 16.9052L15.1199 17.7479C15.6546 18.2572 15.8413 18.9932 15.8333 19.6199V19.7132C15.8413 20.3399 15.6546 21.0759 15.1199 21.5852L15.6319 22.4279C16.3639 22.2172 17.1119 22.4199 17.6759 22.7439C17.7293 22.7741 17.7844 22.8039 17.8413 22.8332C18.4013 23.1185 18.9399 23.6332 19.1239 24.3332H20.2106C20.3946 23.6319 20.9319 23.1185 21.4933 22.8332L21.6586 22.7439C22.2239 22.4199 22.9706 22.2172 23.7013 22.4279L24.2146 21.5852C23.6799 21.0759 23.4933 20.3399 23.5013 19.7132V19.6199C23.4933 18.9932 23.6799 18.2572 24.2146 17.7479L23.7013 16.9052C22.9706 17.1159 22.2239 16.9132 21.6586 16.5892L21.4933 16.4999C20.9333 16.2145 20.3946 15.6999 20.2106 14.9999H19.1239ZM20.7226 19.1239C20.3973 18.5905 19.6479 18.3839 19.0493 18.7105C18.4706 19.0292 18.3026 19.6972 18.6119 20.2092C18.9373 20.7425 19.6866 20.9492 20.2853 20.6225C20.8639 20.3039 21.0319 19.6359 20.7226 19.1239ZM18.4093 17.5425C19.6053 16.8879 21.1493 17.2625 21.8613 18.4305C22.5853 19.6212 22.1399 21.1265 20.9253 21.7905C19.7293 22.4452 18.1853 22.0705 17.4733 20.9025C16.7493 19.7119 17.1946 18.2065 18.4093 17.5425Z" fill="#5B6670"/>
<path d="M10.3333 2C8.59595 2 7.23061 3.368 7.23061 5C7.23061 6.632 8.59461 8 10.3333 8C12.0719 8 13.4373 6.632 13.4373 5C13.4373 3.368 12.0719 2 10.3333 2ZM5.23061 5C5.23061 2.21333 7.53995 0 10.3359 0C13.1306 0 15.4399 2.21333 15.4399 5C15.4399 7.78667 13.1306 10 10.3359 10C7.54128 10 5.22661 7.78667 5.22661 5M6.95995 12.9547C6.71595 12.7987 6.53328 12.7893 6.44795 12.812C6.25595 12.8653 6.06528 12.9222 5.87595 12.9827L4.56395 13.4027C4.11447 13.5411 3.70344 13.7823 3.36345 14.1073C3.02346 14.4322 2.76387 14.8319 2.60528 15.2747C2.56977 15.3928 2.54698 15.5144 2.53728 15.6373L2.01595 20.5693L2.01328 20.5867C1.91328 21.2893 2.28795 21.8267 2.85728 21.96C4.29328 22.2933 6.71195 22.6667 10.3319 22.6667C10.5972 22.6667 10.8515 22.772 11.0391 22.9596C11.2266 23.1471 11.3319 23.4015 11.3319 23.6667C11.3319 23.9319 11.2266 24.1862 11.0391 24.3738C10.8515 24.5613 10.5972 24.6667 10.3319 24.6667C6.57461 24.6667 4.00261 24.2773 2.40528 23.9067C0.686612 23.508 -0.184054 21.8933 0.0306125 20.324L0.547946 15.4267C0.571946 15.1973 0.614612 14.9133 0.715946 14.6213C0.975987 13.8852 1.40393 13.2197 1.96585 12.6777C2.52778 12.1357 3.20823 11.732 3.95328 11.4987L5.26661 11.0773C5.48261 11.0089 5.6995 10.9444 5.91728 10.884C6.73195 10.66 7.50661 10.928 8.04528 11.276C8.53861 11.596 9.34394 11.9813 10.3319 11.9813C11.3186 11.9813 12.1239 11.5947 12.6173 11.2747C13.1546 10.928 13.9306 10.66 14.7453 10.884C14.9631 10.9444 15.1799 11.0089 15.3959 11.0773L16.7093 11.4987C16.8369 11.5366 16.9557 11.5996 17.0586 11.684C17.1616 11.7684 17.2466 11.8726 17.3088 11.9903C17.371 12.108 17.409 12.237 17.4207 12.3696C17.4324 12.5023 17.4174 12.6359 17.3768 12.7627C17.3361 12.8895 17.2705 13.0068 17.1839 13.1079C17.0973 13.209 16.9913 13.2918 16.8723 13.3514C16.7532 13.4111 16.6235 13.4463 16.4906 13.4551C16.3578 13.4639 16.2245 13.4461 16.0986 13.4027L14.7866 12.9827C14.5967 12.9219 14.4055 12.865 14.2133 12.812C14.1293 12.7893 13.9466 12.7987 13.7039 12.9547C13.0199 13.3973 11.8373 13.9813 10.3306 13.9813C8.82395 13.9813 7.64395 13.3973 6.95995 12.9547Z" fill="#5B6670"/>
</svg>