<svg width="20" height="20" viewBox="0 0 20 20" fill="none" xmlns="http://www.w3.org/2000/svg">
<rect y="20" width="20" height="20" rx="3" transform="rotate(-90 0 20)" fill="#5B6670"/>
<path fill-rule="evenodd" clip-rule="evenodd" d="M13.5666 9.5583C13.6837 9.67549 13.7494 9.83434 13.7494 9.99996C13.7494 10.1656 13.6837 10.3244 13.5666 10.4416L7.31663 16.6916C7.19815 16.802 7.04145 16.8621 6.87953 16.8593C6.71761 16.8564 6.56312 16.7908 6.44861 16.6763C6.3341 16.5618 6.26851 16.4073 6.26565 16.2454C6.2628 16.0835 6.3229 15.9268 6.4333 15.8083L12.2416 9.99996L6.4333 4.19163C6.37189 4.13441 6.32264 4.06541 6.28848 3.98875C6.25432 3.91208 6.23595 3.82932 6.23447 3.7454C6.23299 3.66148 6.24843 3.57812 6.27986 3.5003C6.3113 3.42248 6.35808 3.35178 6.41743 3.29243C6.47678 3.23308 6.54748 3.1863 6.6253 3.15486C6.70312 3.12343 6.78648 3.10799 6.8704 3.10947C6.95432 3.11095 7.03708 3.12932 7.11375 3.16348C7.19041 3.19764 7.25941 3.24689 7.31663 3.3083L13.5666 9.5583Z" fill="white"/>
</svg>
