<svg width="21" height="22" viewBox="0 0 21 22" fill="none" xmlns="http://www.w3.org/2000/svg">
<rect x="0.746094" y="0.902344" width="20" height="20.1954" rx="3" fill="#5B6670"/>
<path fill-rule="evenodd" clip-rule="evenodd" d="M11.1878 14.6012C11.0706 14.7194 10.9118 14.7857 10.7461 14.7857C10.5805 14.7857 10.4216 14.7194 10.3045 14.6012L4.05446 8.2901C3.94406 8.17046 3.88396 8.01223 3.88682 7.84873C3.88967 7.68523 3.95527 7.52923 4.06978 7.4136C4.18429 7.29797 4.33878 7.23173 4.50069 7.22885C4.66261 7.22596 4.81932 7.28665 4.9378 7.39813L10.7461 13.2632L16.5545 7.39813C16.6117 7.33613 16.6807 7.28639 16.7573 7.2519C16.834 7.21741 16.9168 7.19886 17.0007 7.19736C17.0846 7.19587 17.168 7.21146 17.2458 7.2432C17.3236 7.27494 17.3943 7.32218 17.4537 7.38211C17.513 7.44204 17.5598 7.51343 17.5912 7.59201C17.6227 7.6706 17.6381 7.75477 17.6366 7.83951C17.6351 7.92425 17.6168 8.00782 17.5826 8.08523C17.5485 8.16265 17.4992 8.23232 17.4378 8.2901L11.1878 14.6012Z" fill="white"/>
</svg>
