<svg width="128" height="114" viewBox="0 0 128 114" fill="none" xmlns="http://www.w3.org/2000/svg">
<path d="M58.1261 15.5451C61.228 10.3353 68.772 10.3353 71.8739 15.5451L114.958 87.9073C118.133 93.2399 114.29 100 108.084 100H21.9161C15.7098 100 11.8672 93.24 15.0422 87.9073L58.1261 15.5451Z" fill="white"/>
<path d="M50.459 11.4707C56.8003 1.34877 71.774 1.51254 77.8369 11.9609L120.834 86.0605L120.835 86.0615L121.114 86.5635C126.766 97.1264 119.092 110 106.993 110H21.0078C8.71033 110 0.992812 96.7127 7.16602 86.0615L7.16699 86.0605L50.1641 11.9609L50.459 11.4707ZM64 19.1777C63.857 19.1778 63.7172 19.2151 63.5947 19.2852C63.4753 19.3536 63.3767 19.4507 63.3076 19.5654L20.3203 93.6533L20.3213 93.6543C20.2527 93.7734 20.2167 93.9074 20.2168 94.043C20.217 94.1785 20.2534 94.3127 20.3223 94.4316L20.3789 94.5166C20.4419 94.5986 20.5213 94.6685 20.6133 94.7217L20.708 94.7686C20.8059 94.8092 20.9119 94.8307 21.0195 94.8311H106.979C107.123 94.8305 107.262 94.7923 107.385 94.7217L107.472 94.6631C107.555 94.5994 107.624 94.5209 107.676 94.4316L107.722 94.3398C107.761 94.2457 107.781 94.1446 107.781 94.043L107.774 93.9424C107.761 93.8421 107.729 93.7445 107.678 93.6553H107.677L64.6982 19.5732V19.5742C64.6463 19.4854 64.5771 19.407 64.4941 19.3438L64.4062 19.2852C64.2836 19.2149 64.1432 19.1777 64 19.1777Z" fill="#FF0008" stroke="white" stroke-width="8"/>
<path d="M68.5384 82.1033C68.5384 83.3709 68.0584 84.5865 67.2041 85.4828C66.3499 86.3791 65.1912 86.8827 63.983 86.8827C62.7749 86.8827 61.6162 86.3791 60.762 85.4828C59.9077 84.5865 59.4277 83.3709 59.4277 82.1033C59.4277 80.8357 59.9077 79.6201 60.762 78.7238C61.6162 77.8274 62.7749 77.3239 63.983 77.3239C65.1912 77.3239 66.3499 77.8274 67.2041 78.7238C68.0584 79.6201 68.5384 80.8357 68.5384 82.1033ZM67.3995 42.6734C67.3995 41.7227 67.0396 40.811 66.3989 40.1388C65.7582 39.4665 64.8892 39.0889 63.983 39.0889C63.0769 39.0889 62.2079 39.4665 61.5672 40.1388C60.9265 40.811 60.5666 41.7227 60.5666 42.6734V64.1806C60.5666 65.1313 60.9265 66.043 61.5672 66.7153C62.2079 67.3875 63.0769 67.7651 63.983 67.7651C64.8892 67.7651 65.7582 67.3875 66.3989 66.7153C67.0396 66.043 67.3995 65.1313 67.3995 64.1806V42.6734Z" fill="#FF0008"/>
</svg>
