<svg width="23" height="19" viewBox="0 0 23 19" fill="none" xmlns="http://www.w3.org/2000/svg">
<path d="M4.43719 0.134766C3.84561 0.134766 3.33411 0.134766 2.9324 0.173516C2.53586 0.209683 2.04761 0.296224 1.64977 0.623015C1.39825 0.830971 1.19564 1.09179 1.05633 1.38692C0.917027 1.68205 0.844453 2.00424 0.843772 2.3306C0.841189 2.83435 1.06594 3.26835 1.28294 3.61193C1.49994 3.96068 1.81381 4.37402 2.18065 4.8571L5.53381 9.27718C5.85931 9.70602 5.94069 9.81968 5.99752 9.93593C6.05608 10.0565 6.0987 10.1844 6.1254 10.3196C6.15123 10.4487 6.15511 10.5934 6.15511 11.1385V14.9747C6.15511 15.2821 6.15381 15.6128 6.24552 15.928C6.32561 16.2018 6.45865 16.4576 6.6369 16.6836C6.84356 16.9419 7.11481 17.1305 7.36281 17.2997L7.42481 17.3424L8.70356 18.2246C8.91798 18.3731 9.13111 18.5216 9.31711 18.625C9.50311 18.7283 9.81827 18.8859 10.2084 18.8613C10.6772 18.8329 11.0996 18.5927 11.3709 18.222C11.593 17.9171 11.6421 17.5774 11.6602 17.3656C11.6783 17.1512 11.6783 16.8877 11.6783 16.619V11.1385C11.6783 10.5934 11.6834 10.4487 11.708 10.3196C11.7338 10.1844 11.7769 10.0565 11.8371 9.93593C11.8927 9.81968 11.9741 9.70602 12.2996 9.27718L15.6527 4.8571C16.0196 4.37402 16.3334 3.96068 16.5517 3.61193C16.7674 3.26835 16.9909 2.83435 16.9896 2.3306C16.9889 2.00424 16.9164 1.68205 16.777 1.38692C16.6377 1.09179 16.4351 0.830971 16.1836 0.623015C15.7858 0.296224 15.2975 0.209682 14.901 0.172224C14.4993 0.134765 13.9878 0.134766 13.3962 0.134766H4.43719ZM2.78256 2.31639C2.78675 2.25201 2.81271 2.19097 2.85619 2.14331C2.88719 2.13427 2.9634 2.11618 3.11452 2.10197C3.41419 2.07356 3.83269 2.07227 4.48369 2.07227H13.3497C14.0007 2.07227 14.4192 2.07227 14.7189 2.10197C14.87 2.11489 14.9462 2.13427 14.9772 2.14331C15.0159 2.18593 15.0456 2.24664 15.0508 2.31639C15.0141 2.41078 14.9664 2.50052 14.9087 2.58377C14.7434 2.84856 14.4825 3.19343 14.0821 3.72172L13.6184 4.33268H4.21502L3.75002 3.72172C3.34961 3.19214 3.08869 2.84856 2.92336 2.58377C2.86568 2.50052 2.81928 2.41078 2.78256 2.31639ZM17.3125 6.5931C17.0556 6.5931 16.8092 6.69516 16.6275 6.87684C16.4458 7.05852 16.3438 7.30492 16.3438 7.56185C16.3438 7.81878 16.4458 8.06518 16.6275 8.24686C16.8092 8.42853 17.0556 8.5306 17.3125 8.5306H21.1875C21.4445 8.5306 21.6909 8.42853 21.8725 8.24686C22.0542 8.06518 22.1563 7.81878 22.1563 7.56185C22.1563 7.30492 22.0542 7.05852 21.8725 6.87684C21.6909 6.69516 21.4445 6.5931 21.1875 6.5931H17.3125ZM15.375 9.82227C15.1181 9.82227 14.8717 9.92433 14.69 10.106C14.5083 10.2877 14.4063 10.5341 14.4063 10.791C14.4063 11.0479 14.5083 11.2943 14.69 11.476C14.8717 11.6577 15.1181 11.7598 15.375 11.7598H21.1875C21.4445 11.7598 21.6909 11.6577 21.8725 11.476C22.0542 11.2943 22.1563 11.0479 22.1563 10.791C22.1563 10.5341 22.0542 10.2877 21.8725 10.106C21.6909 9.92433 21.4445 9.82227 21.1875 9.82227H15.375ZM14.7292 13.0514C14.4723 13.0514 14.2259 13.1535 14.0442 13.3352C13.8625 13.5168 13.7604 13.7633 13.7604 14.0202C13.7604 14.2771 13.8625 14.5235 14.0442 14.7052C14.2259 14.8869 14.4723 14.9889 14.7292 14.9889H21.1875C21.4445 14.9889 21.6909 14.8869 21.8725 14.7052C22.0542 14.5235 22.1563 14.2771 22.1563 14.0202C22.1563 13.7633 22.0542 13.5168 21.8725 13.3352C21.6909 13.1535 21.4445 13.0514 21.1875 13.0514H14.7292ZM14.7292 16.2806C14.4723 16.2806 14.2259 16.3827 14.0442 16.5643C13.8625 16.746 13.7604 16.9924 13.7604 17.2493C13.7604 17.5063 13.8625 17.7527 14.0442 17.9344C14.2259 18.116 14.4723 18.2181 14.7292 18.2181H17.9584C18.2153 18.2181 18.4617 18.116 18.6434 17.9344C18.825 17.7527 18.9271 17.5063 18.9271 17.2493C18.9271 16.9924 18.825 16.746 18.6434 16.5643C18.4617 16.3827 18.2153 16.2806 17.9584 16.2806H14.7292Z" fill="#4197CB"/>
</svg>
