<svg width="19" height="29" viewBox="0 0 19 29" fill="none" xmlns="http://www.w3.org/2000/svg">
<path d="M19 1.61112L19 27.3889C19 27.8454 18.7879 28.2277 18.3637 28.536C17.9395 28.8443 17.4152 28.9989 16.7907 29C16.1662 29.0011 15.6411 28.8464 15.2155 28.536C14.7898 28.2256 14.5784 27.8432 14.5814 27.3889L14.5814 1.61112C14.5814 1.15464 14.7935 0.77173 15.2177 0.462398C15.6419 0.153064 16.1662 -0.00106646 16.7907 7.43625e-06C17.4152 0.00108133 17.9395 0.155748 18.3637 0.464008C18.7879 0.772266 19 1.15464 19 1.61112ZM10.1628 8.37778L10.1628 20.6222C10.1628 20.9981 9.94186 21.2532 9.5 21.3875C9.05814 21.5218 8.6531 21.4546 8.28488 21.1861L0.662793 15.6278C0.220933 15.3056 -6.77278e-07 14.9296 -6.39718e-07 14.5C-6.02159e-07 14.0704 0.220933 13.6944 0.662794 13.3722L8.28488 7.81389C8.6531 7.54537 9.05814 7.47824 9.5 7.6125C9.94186 7.74676 10.1628 8.00186 10.1628 8.37778Z" fill="black"/>
</svg>
