<svg width="70" height="70" viewBox="0 0 70 70" fill="none" xmlns="http://www.w3.org/2000/svg">
<circle cx="35.972" cy="35.9719" r="33.7918" fill="#5EDD60"/>
<path d="M31.1504 47.6839C30.4906 47.6907 29.8488 47.4692 29.3336 47.0571L20.6949 40.1534C20.0986 39.6715 19.7182 38.9726 19.6373 38.2102C19.5563 37.4479 19.7816 36.6846 20.2634 36.0884C20.7452 35.4921 21.4442 35.1117 22.2065 35.0307C22.9689 34.9498 23.7321 35.175 24.3284 35.6569L30.9324 40.9346L46.7745 24.6291C47.3235 24.1816 48.0181 23.952 48.7256 23.9843C49.4331 24.0166 50.1038 24.3086 50.6097 24.8043C51.1155 25.3 51.4209 25.9647 51.4675 26.6714C51.5141 27.3781 51.2986 28.0772 50.8623 28.6351L33.2124 46.8027C32.9454 47.0805 32.6252 47.3016 32.271 47.453C31.9167 47.6044 31.5356 47.6829 31.1504 47.6839Z" fill="white"/>
<path d="M35 70C28.0777 70 21.3108 67.9473 15.5551 64.1014C9.79934 60.2556 5.3133 54.7893 2.66423 48.3939C0.0151649 41.9985 -0.677952 34.9612 0.672531 28.1719C2.02301 21.3825 5.35644 15.1461 10.2513 10.2513C15.1461 5.35644 21.3825 2.02301 28.1719 0.672531C34.9612 -0.677952 41.9985 0.0151649 48.3939 2.66423C54.7893 5.3133 60.2556 9.79934 64.1014 15.5551C67.9473 21.3108 70 28.0777 70 35C69.988 44.2789 66.2966 53.1743 59.7355 59.7355C53.1743 66.2966 44.2789 69.988 35 70ZM35 5.75008C29.2149 5.75008 23.5597 7.46556 18.7496 10.6796C13.9395 13.8936 10.1905 18.4618 7.9766 23.8065C5.76274 29.1513 5.18349 35.0325 6.31211 40.7064C7.44072 46.3803 10.2265 51.5922 14.3172 55.6828C18.4079 59.7735 23.6197 62.5593 29.2936 63.6879C34.9676 64.8165 40.8487 64.2373 46.1935 62.0234C51.5382 59.8096 56.1064 56.0605 59.3204 51.2504C62.5345 46.4403 64.2499 40.7851 64.2499 35C64.2403 27.2454 61.1556 19.8111 55.6722 14.3278C50.1889 8.84446 42.7546 5.75969 35 5.75008Z" fill="#3C98CB"/>
</svg>
