<svg width="150" height="108" viewBox="0 0 150 108" fill="none" xmlns="http://www.w3.org/2000/svg">
<path d="M14 105.669H110C116.627 105.669 122 100.296 122 93.6689V65L144.5 53.375L122 43.5V14C122 7.37258 116.627 2 110 2H14C7.37259 2 2 7.37258 2 14V93.6689C2 100.296 7.37259 105.669 14 105.669Z" stroke="#D05559" stroke-width="4"/>
<path d="M66.6562 43.1875V77H58.375V43.1875H66.6562ZM57.8125 34.3438C57.8125 33.1146 58.2292 32.0938 59.0625 31.2812C59.9167 30.4688 61.0625 30.0625 62.5 30.0625C63.9375 30.0625 65.0729 30.4688 65.9062 31.2812C66.7604 32.0938 67.1875 33.1146 67.1875 34.3438C67.1875 35.5521 66.7604 36.5625 65.9062 37.375C65.0729 38.1875 63.9375 38.5938 62.5 38.5938C61.0625 38.5938 59.9167 38.1875 59.0625 37.375C58.2292 36.5625 57.8125 35.5521 57.8125 34.3438Z" fill="#D05559"/>
</svg>
