<svg width="37" height="40" viewBox="0 0 37 40" fill="none" xmlns="http://www.w3.org/2000/svg">
<path fill-rule="evenodd" clip-rule="evenodd" d="M25.4377 7.46364V7.84163C26.9096 7.98729 28.3692 8.17884 29.8155 8.41496C30.3509 8.50239 30.8846 8.59592 31.4163 8.69549C32.0455 8.81332 32.4672 9.46028 32.3582 10.1405C32.2492 10.8207 31.6508 11.2766 31.0216 11.1588C30.9143 11.1387 30.8069 11.1189 30.6994 11.0993L29.1494 32.8835C28.964 35.4885 26.9548 37.5 24.538 37.5H12.4624C10.0456 37.5 8.03634 35.4885 7.85098 32.8835L6.30095 11.0993C6.19348 11.1189 6.0861 11.1387 5.97879 11.1588C5.34958 11.2766 4.75115 10.8207 4.64216 10.1405C4.53316 9.46028 4.95488 8.81332 5.58409 8.69549C6.11581 8.59592 6.64943 8.50239 7.18491 8.41496C8.63114 8.17884 10.0908 7.98729 11.5627 7.84163V7.46364C11.5627 4.85619 13.432 2.6303 15.9032 2.54485C16.7655 2.51502 17.6312 2.5 18.5002 2.5C19.3691 2.5 20.2349 2.51502 21.0972 2.54485C23.5684 2.6303 25.4377 4.85619 25.4377 7.46364ZM15.9771 5.04357C16.8148 5.0146 17.6559 5 18.5002 5C19.3445 5 20.1856 5.0146 21.0233 5.04357C22.1867 5.0838 23.1252 6.13989 23.1252 7.46364V7.65137C21.5953 7.55094 20.0532 7.5 18.5002 7.5C16.9472 7.5 15.4051 7.55094 13.8752 7.65137V7.46364C13.8752 6.13989 14.8137 5.0838 15.9771 5.04357ZM15.4301 14.952C15.4056 14.2621 14.8684 13.7244 14.2303 13.7509C13.5922 13.7775 13.0948 14.3582 13.1193 15.048L13.653 30.048C13.6775 30.7379 14.2147 31.2756 14.8528 31.2491C15.4909 31.2225 15.9883 30.6418 15.9638 29.952L15.4301 14.952ZM23.8796 15.048C23.9042 14.3582 23.4068 13.7775 22.7687 13.7509C22.1306 13.7244 21.5934 14.2621 21.5688 14.952L21.0352 29.952C21.0106 30.6418 21.508 31.2225 22.1461 31.2491C22.7843 31.2756 23.3214 30.7379 23.346 30.048L23.8796 15.048Z" fill="#5B89B4"/>
</svg>
