<svg width="100" height="93" viewBox="0 0 100 93" fill="none" xmlns="http://www.w3.org/2000/svg">
<path d="M81.1998 23.8875C76.8591 16.1405 68.3156 11.6968 59.1537 13.1598C55.5574 5.61038 48.0335 0.816406 39.5728 0.816406C27.5976 0.816406 17.8542 10.5592 17.8542 22.5366C17.8542 23.0309 17.8737 23.5404 17.9181 24.071C7.58243 26.4263 0 35.7582 0 46.5054C0 59.2056 10.3319 69.5359 23.0321 69.5359H41.2372V65.7322H23.0321C12.4289 65.7322 3.80584 57.1075 3.80584 46.5059C3.80584 37.0165 10.8901 28.8434 20.2886 27.4984C20.7927 27.4269 21.2459 27.1557 21.548 26.7447C21.8485 26.3359 21.9785 25.8221 21.8967 25.3207C21.7359 24.2898 21.6547 23.3812 21.6547 22.5382C21.6547 12.6573 29.6962 4.61954 39.5733 4.61954C46.9928 4.61954 53.5367 9.09189 56.2516 16.0116C56.5927 16.8893 57.5245 17.3836 58.4487 17.1703C66.8006 15.2384 74.6483 19.2727 78.2679 26.4659C78.543 27.0219 79.0817 27.4058 79.6979 27.493C89.1017 28.832 96.2017 37.0057 96.2017 46.5043C96.2017 57.1059 87.5727 65.7306 76.9695 65.7306H52.7321V69.5343H76.9679C89.6697 69.5343 100 59.204 100 46.5038C100 35.4523 91.9833 25.899 81.1998 23.8875Z" fill="#007AFF"/>
<path d="M58.7923 45.5534C59.5536 44.7937 59.5536 43.5652 58.7923 42.8055L47.939 31.9506C47.5595 31.5727 47.0651 31.3848 46.567 31.3848L46.5323 31.3907C46.5226 31.3907 46.5128 31.3848 46.5031 31.3848C45.999 31.3848 45.5014 31.5802 45.1311 31.9506L34.2777 42.8061C33.5181 43.5657 33.5181 44.7943 34.2777 45.5539C35.0374 46.3152 36.2659 46.3152 37.0256 45.5539L44.5577 38.0213V90.6646C44.5577 91.7421 45.4256 92.6122 46.5031 92.6122C47.5746 92.6122 48.4469 91.7421 48.4469 90.6646V37.9536L56.045 45.5534C56.802 46.3152 58.0327 46.3152 58.7923 45.5534Z" fill="#007AFF"/>
</svg>
