<svg width="20" height="20" viewBox="0 0 20 20" fill="none" xmlns="http://www.w3.org/2000/svg">
<path d="M4.9505 5.94406C4.35644 5.94406 3.96039 5.74592 3.56435 5.34965C3.16831 4.95338 2.9703 4.55711 2.9703 3.9627V1.98135C2.9703 1.48601 3.16831 0.990676 3.56435 0.594406C3.96039 0.198135 4.45545 0 4.9505 0H14.8515C15.4455 0 15.8416 0.198135 16.2376 0.594406C16.6337 0.990676 16.8317 1.48601 16.8317 1.98135V3.9627C16.8317 4.55711 16.6337 4.95338 16.2376 5.34965C15.8416 5.74592 15.3465 5.94406 14.8515 5.94406H4.9505ZM5.94059 3.9627H13.8614C14.1584 3.9627 14.3564 3.86364 14.4554 3.56643C14.5544 3.3683 14.7525 3.0711 14.8515 2.97203C14.8515 2.67482 14.7525 2.47669 14.5545 2.27855C14.3564 2.08042 14.1584 1.98135 13.8614 1.98135H5.94059C5.64357 1.98135 5.44555 2.08042 5.24753 2.27855C5.04951 2.47669 4.9505 2.67482 4.9505 2.97203C5.14852 3.17016 5.24752 3.3683 5.34653 3.56643C5.44554 3.86364 5.64357 3.9627 5.94059 3.9627ZM1.9802 19.8135C1.38614 19.8135 0.99009 19.6154 0.59405 19.2191C0.198011 18.8228 0 18.3275 0 17.8322V16.8415H19.802V17.8322C19.802 18.4266 19.604 18.8228 19.2079 19.2191C18.8119 19.6154 18.3168 19.8135 17.8218 19.8135H1.9802ZM0 15.8508L3.46535 8.12354C3.66337 7.72727 3.86139 7.43007 4.25743 7.23193C4.55446 7.0338 4.95049 6.93473 5.34653 6.93473H14.6535C15.0495 6.93473 15.3465 7.0338 15.7426 7.23193C16.0396 7.43007 16.3366 7.72727 16.5347 8.12354L20 15.8508H0ZM6.43564 13.8695H7.42574C7.52475 13.8695 7.72277 13.7704 7.82178 13.7704C7.92079 13.6713 7.92079 13.5723 7.92079 13.3741C7.92079 13.2751 7.82178 13.0769 7.82178 13.0769C7.72277 12.9779 7.62376 12.8788 7.42574 12.8788H6.43564C6.33663 12.8788 6.13861 12.9779 6.13861 13.0769C6.0396 13.176 5.94059 13.2751 5.94059 13.3741C5.94059 13.4732 6.0396 13.6713 6.13861 13.7704C6.13861 13.7704 6.33663 13.8695 6.43564 13.8695ZM6.43564 11.8881H7.42574C7.52475 11.8881 7.72277 11.789 7.82178 11.789C7.92079 11.69 7.92079 11.5909 7.92079 11.3928C7.92079 11.2937 7.82178 11.0956 7.82178 11.0956C7.72277 10.9965 7.62376 10.8974 7.42574 10.8974H6.43564C6.33663 10.8974 6.13861 10.9965 6.13861 11.0956C6.0396 11.1946 5.94059 11.2937 5.94059 11.3928C5.94059 11.4918 6.0396 11.69 6.13861 11.789C6.13861 11.789 6.33663 11.8881 6.43564 11.8881ZM6.43564 9.90676H7.42574C7.52475 9.90676 7.72277 9.80769 7.82178 9.80769C7.92079 9.70862 7.92079 9.60956 7.92079 9.41142C7.92079 9.31235 7.82178 9.11422 7.82178 9.11422C7.72277 9.01515 7.62376 8.91608 7.42574 8.91608H6.43564C6.33663 8.91608 6.13861 9.01515 6.13861 9.11422C6.0396 9.21329 5.94059 9.31235 5.94059 9.41142C5.94059 9.51049 6.0396 9.70862 6.13861 9.80769C6.13861 9.80769 6.33663 9.90676 6.43564 9.90676ZM9.40594 13.8695H10.396C10.4951 13.8695 10.6931 13.7704 10.7921 13.7704C10.8911 13.6713 10.8911 13.5723 10.8911 13.3741C10.8911 13.2751 10.7921 13.0769 10.7921 13.0769C10.6931 12.9779 10.5941 12.8788 10.396 12.8788H9.40594C9.30693 12.8788 9.10891 12.9779 9.10891 13.0769C9.0099 13.176 8.91089 13.2751 8.91089 13.3741C8.91089 13.4732 9.0099 13.6713 9.10891 13.7704C9.10891 13.7704 9.30693 13.8695 9.40594 13.8695ZM9.40594 11.8881H10.396C10.4951 11.8881 10.6931 11.789 10.7921 11.789C10.8911 11.69 10.8911 11.5909 10.8911 11.3928C10.8911 11.2937 10.7921 11.0956 10.7921 11.0956C10.6931 10.9965 10.5941 10.8974 10.396 10.8974H9.40594C9.30693 10.8974 9.10891 10.9965 9.10891 11.0956C9.0099 11.1946 8.91089 11.2937 8.91089 11.3928C8.91089 11.4918 9.0099 11.69 9.10891 11.789C9.10891 11.789 9.30693 11.8881 9.40594 11.8881ZM9.40594 9.90676H10.396C10.4951 9.90676 10.6931 9.80769 10.7921 9.80769C10.8911 9.70862 10.8911 9.60956 10.8911 9.41142C10.8911 9.31235 10.7921 9.11422 10.7921 9.11422C10.6931 9.01515 10.5941 8.91608 10.396 8.91608H9.40594C9.30693 8.91608 9.10891 9.01515 9.10891 9.11422C9.0099 9.21329 8.91089 9.31235 8.91089 9.41142C8.91089 9.51049 9.0099 9.70862 9.10891 9.80769C9.10891 9.80769 9.30693 9.90676 9.40594 9.90676ZM12.3762 13.8695H13.3663C13.4653 13.8695 13.6634 13.7704 13.7624 13.7704C13.8614 13.6713 13.8614 13.5723 13.8614 13.3741C13.8614 13.2751 13.7624 13.0769 13.7624 13.0769C13.6634 12.9779 13.5644 12.8788 13.3663 12.8788H12.3762C12.2772 12.8788 12.0792 12.9779 12.0792 13.0769C11.9802 13.176 11.8812 13.2751 11.8812 13.3741C11.8812 13.4732 11.9802 13.6713 12.0792 13.7704C12.0792 13.7704 12.2772 13.8695 12.3762 13.8695ZM12.3762 11.8881H13.3663C13.4653 11.8881 13.6634 11.789 13.7624 11.789C13.8614 11.69 13.8614 11.5909 13.8614 11.3928C13.8614 11.2937 13.7624 11.0956 13.7624 11.0956C13.6634 10.9965 13.5644 10.8974 13.3663 10.8974H12.3762C12.2772 10.8974 12.0792 10.9965 12.0792 11.0956C11.9802 11.1946 11.8812 11.2937 11.8812 11.3928C11.8812 11.4918 11.9802 11.69 12.0792 11.789C12.0792 11.789 12.2772 11.8881 12.3762 11.8881ZM12.3762 9.90676H13.3663C13.4653 9.90676 13.6634 9.80769 13.7624 9.80769C13.8614 9.70862 13.8614 9.60956 13.8614 9.41142C13.8614 9.31235 13.7624 9.11422 13.7624 9.11422C13.6634 9.01515 13.5644 8.91608 13.3663 8.91608H12.3762C12.2772 8.91608 12.0792 9.01515 12.0792 9.11422C11.9802 9.21329 11.8812 9.31235 11.8812 9.41142C11.8812 9.51049 11.9802 9.70862 12.0792 9.80769C12.0792 9.80769 12.2772 9.90676 12.3762 9.90676Z" fill="white"/>
</svg>
