<svg width="21" height="17" viewBox="0 0 21 17" fill="none" xmlns="http://www.w3.org/2000/svg">
<path d="M20.3824 0H0.617647C0.453837 0 0.296736 0.0650733 0.180905 0.180905C0.0650733 0.296736 0 0.453837 0 0.617647V14.6176C0 14.9999 0.151838 15.3664 0.422111 15.6367C0.692384 15.907 1.05895 16.0588 1.44118 16.0588H19.5588C19.941 16.0588 20.3076 15.907 20.5779 15.6367C20.8482 15.3664 21 14.9999 21 14.6176V0.617647C21 0.453837 20.9349 0.296736 20.8191 0.180905C20.7033 0.0650733 20.5462 0 20.3824 0ZM1.23529 6.17647H5.76471V9.88235H1.23529V6.17647ZM7 6.17647H19.7647V9.88235H7V6.17647ZM19.7647 1.23529V4.94118H1.23529V1.23529H19.7647ZM1.23529 14.6176V11.1176H5.76471V14.8235H1.44118C1.38657 14.8235 1.33421 14.8018 1.2956 14.7632C1.25699 14.7246 1.23529 14.6722 1.23529 14.6176ZM19.5588 14.8235H7V11.1176H19.7647V14.6176C19.7647 14.6722 19.743 14.7246 19.7044 14.7632C19.6658 14.8018 19.6134 14.8235 19.5588 14.8235Z" fill="#5B6670"/>
</svg>
